<?xml version="1.0" encoding="utf-8"?>
<!DOCTYPE svg PUBLIC "-//W3C//DTD SVG 1.0//EN" "http://www.w3.org/TR/2001/REC-SVG-20010904/DTD/svg10.dtd">
<svg version="1.0" xmlns="http://www.w3.org/2000/svg" width="100%" height="100%" viewBox="0 0 100 100" preserveAspectRatio="xMidYMid meet">
 <g fill="#ffffff">
  <path d="M285.2 591.9 c-48.8 -3.1 -99 -18.9 -141.3 -44.5 -36.3 -21.9 -71.2 -55.2 -94.7 -90.4 -64.8 -97.1 -65 -223.1 -0.3 -320.5 23.5 -35.5 58.2 -68.7 95 -90.9 99.3 -60.2 225.8 -60.2 325.2 0 36.3 21.9 71.2 55.2 94.7 90.4 65 97.3 65 223.7 0 321 -23.5 35.2 -58.4 68.5 -94.7 90.4 -43.3 26.2 -91.8 41.3 -143.6 44.6 -17.5 1.1 -22 1.1 -40.3 -0.1z m-153.4 -136.5 c112.7 -28.6 240 -28.5 354.1 0.2 9.7 2.4 18.5 4.7 19.6 4.9 3.1 0.8 -5.9 -3.3 -19 -8.5 -11.9 -4.7 -37 -13.1 -43.3 -14.5 -1.8 -0.4 -3.6 -1.3 -3.9 -2.1 -0.3 -0.9 -2.1 -1.4 -5.4 -1.4 l-4.9 0 0 -5.8 c0 -3.3 0.3 -10 0.6 -15 l0.7 -9.2 3.8 0 3.9 0 0.1 7.8 c0.1 8.6 1.6 15.9 1.8 8.6 0.1 -2.3 0.4 -6.9 0.7 -10.3 l0.7 -6.1 5.3 0 c3 0 5.4 -0.2 5.4 -0.4 0 -0.2 -1.8 -8.3 -4 -18.1 -2.2 -9.8 -4 -19.5 -4 -21.6 0 -3.7 0.2 -3.9 3 -3.9 2.8 0 2.9 -0.1 1.8 -2.7 -3.6 -8.5 -9.5 -12.8 -16.4 -12 -5.3 0.6 -9.2 3.4 -12.2 8.6 l-2.3 4.1 3.1 0 c2.7 0 3 0.3 3 3 0 1.6 -1.8 11.6 -4 22.2 -2.2 10.6 -4 19.6 -4 20.1 0 0.4 2.2 0.7 4.9 0.7 2.8 0 5.2 0.4 5.5 0.8 0.3 0.5 0.8 6.8 1.2 14 l0.7 13.2 -2.9 0 c-1.6 0 -7.8 -1 -13.8 -2.2 l-10.8 -2.3 0.7 -24.3 c0.7 -24.1 0.8 -24.4 3.2 -27 l2.5 -2.7 -2.5 -0.3 -2.6 -0.3 0.6 -20.7 c0.3 -11.4 1 -21.3 1.6 -22 0.6 -0.8 0.7 -10 0.2 -26.3 l-0.7 -25 3.8 0.3 3.9 0.3 6.8 15 6.9 15.1 3.5 -0.4 c1.8 -0.2 3.3 -0.7 3.1 -1.1 -0.2 -0.4 -4.1 -10.1 -8.7 -21.6 -9.9 -24.5 -12.7 -29.6 -18.5 -33 -11.9 -7 -35.4 -7.2 -48.6 -0.5 -4.4 2.2 -8.1 6.7 -10.6 12.6 -4.6 11 -22.4 64.6 -22.4 67.5 l0.1 3.4 3.2 -3.5 c2.4 -2.6 5.5 -9.5 12.2 -27.2 l9 -23.8 3.3 0 3.2 0 0 23.8 c0 15.6 0.4 24.2 1.1 24.9 1 1 1.9 18.6 3.5 68.1 l0.7 22.2 -4.5 0 -4.5 0 -0.6 -15.2 c-0.4 -8.4 -1 -26.5 -1.3 -40.3 -0.5 -18.7 -1 -25.4 -2 -26.5 -0.8 -1 -1.4 -4.9 -1.6 -10.5 l-0.3 -9 -3.4 9.2 c-3.2 8.4 -4.2 9.9 -12.9 19.2 l-9.4 10.1 -6.5 0 c-5.6 0 -7.1 -0.4 -10 -2.6 l-3.5 -2.6 0.7 12.4 c0.5 8.9 0.4 12.7 -0.4 13.2 -0.7 0.4 -1.1 3.8 -1.1 8.5 0 4.3 -0.3 13.3 -0.7 19.9 l-0.6 12.2 -4.4 0 -4.4 0 0.7 -24.2 c0.4 -13.4 1 -24.4 1.4 -24.6 0.4 -0.1 0.5 -7.9 0.2 -17.2 l-0.5 -17 3.8 0 c3.1 0 4.8 0.9 10.5 6 3.7 3.3 7.2 6 7.7 6 0.5 0 2.9 -2.1 5.3 -4.7 3.8 -3.8 4 -4.3 1.3 -2.5 -1.9 1.4 -4.7 2.2 -7.1 2.2 -3.6 0 -4.7 -0.7 -10.5 -6.4 -8.1 -8 -11.4 -9.8 -19.8 -10.4 -8.7 -0.6 -16 1.2 -21.5 5.4 -2.6 2 -5.6 3.4 -7.2 3.4 -2.6 0 -3.3 -1.2 -11.7 -18.1 -11.7 -23.6 -15.8 -27.4 -29.6 -27.3 -6.8 0.1 -14.6 3.9 -18.6 9.3 -1.5 2 -6.4 13.3 -10.9 25.2 -4.5 11.9 -8.7 22.6 -9.3 23.7 -1.3 2.5 -1.4 3.2 -0.2 3.2 0.9 0 14.1 -29.1 14.1 -31 0 -0.6 1.6 -1 3.5 -1 3.4 0 3.5 0.1 3.5 4 0 2.2 -3.1 18.7 -7 36.6 -3.8 18 -7 32.8 -7 33 0 0.2 4.2 0.5 9.3 0.6 l9.2 0.3 1.2 11.5 c0.6 6.3 1.2 14.7 1.2 18.7 l0.1 7.1 -7.2 1.7 c-12 2.6 -39.8 11.1 -54.3 16.5 -11.8 4.4 -31.5 13.1 -26 11.4 1.1 -0.3 9.8 -2.5 19.3 -5z m328.1 -109 c1.2 -1.9 2.1 -3.6 2.1 -3.7 0 -0.2 -1.8 -0.1 -3.9 0.1 l-4 0.4 1.6 3.4 c0.9 1.9 1.8 3.4 1.9 3.4 0.1 0 1.1 -1.6 2.3 -3.6z m-42.8 -11.4 c-0.9 -2.3 -1.2 -5.9 -0.9 -10.6 0.3 -4.6 0 -8.2 -0.8 -10 -1.1 -2.5 -1.2 -1.2 -1.3 10.4 -0.1 8.1 -0.5 13.2 -1.1 13.2 -0.5 0 -1 1.5 -1 3.4 l0 3.4 3.3 -3.1 c3.1 -3.1 3.2 -3.3 1.8 -6.7z m20.4 -3.1 c4.4 -3.9 4.5 -7 0.6 -11 -4.3 -4.3 -7.6 -3.7 -11.5 2.2 -2 3.2 -1 6.6 3 9.8 3.4 2.7 3.7 2.7 7.9 -1z m83 2.2 c-1.7 -1.5 -27.8 -19.1 -28.1 -18.9 -0.5 0.6 -5.4 13.1 -5.1 13.3 0.5 0.4 30.3 6.3 32.2 6.4 1.1 0.1 1.5 -0.3 1 -0.8z m-346.7 -19.8 c6.6 -17.3 6.8 -18.3 5.2 -19.8 -2.5 -2.3 -4.2 -6.8 -3.8 -10.1 0.2 -2.2 0.9 -3 2.8 -3.2 2.9 -0.4 6.6 -3.6 8.5 -7.2 0.7 -1.4 1.8 -7.2 2.3 -12.9 1.8 -17.8 7 -24.9 19.9 -27.3 4.7 -0.9 7.5 -0.8 12.4 0.2 5.5 1.1 7 2 11.1 6.1 5.3 5.4 6.6 9 7.4 20.4 0.3 4.4 1 9.9 1.6 12.3 1.2 4.6 5.6 9.2 8.9 9.2 1.5 0 1.9 0.7 1.9 3.5 0 4.5 -2.1 8.7 -5.7 11.3 l-2.7 2 5.4 11.1 c4.2 8.6 5.8 11 7 10.5 0.8 -0.3 2.3 -0.9 3.3 -1.2 1.4 -0.3 1.7 -1 1.2 -2.6 -2.4 -7.4 -2.9 -11.9 -1.8 -17.1 2.2 -10.3 6.9 -13.9 18.3 -14 9.4 0 13.5 2.1 16.8 8.5 2.6 5.3 3 15.1 0.8 20.5 l-1.5 3.5 4.4 1.9 c2.5 1.1 6.7 4.2 9.5 7 2.8 2.8 5.2 4.5 5.4 3.8 0.5 -2.2 12.3 -37.7 18.5 -55.6 3.2 -9.5 7.2 -19.4 8.8 -22 3.3 -5.2 11.2 -10.6 17.4 -11.6 2.1 -0.4 3.9 -0.9 3.9 -1.2 0 -0.3 -1.3 -2.1 -3 -3.9 -4.2 -4.9 -6.3 -13 -5.8 -22.3 0.6 -9 2.8 -14.1 8.7 -19.4 5 -4.5 10.6 -6.1 19.6 -5.5 15.9 1.1 23.5 10 23.5 27.8 0 9.7 -1.2 14 -5.5 19.5 l-2.4 3.2 6.2 1.7 c8.8 2.4 14 5.8 17.5 11.3 1.7 2.6 7.4 15.7 12.7 29.1 l9.7 24.2 5.9 0 c5 0 6.3 0.4 9 2.8 3 2.7 3.2 3.4 3.7 11 0.4 7.8 0.5 8.1 3 8.4 1.8 0.2 2.8 1.1 3.2 2.7 0.5 2.1 1 1.4 3.9 -4.8 7.5 -16.3 12.4 -35.3 14 -54.3 4 -48 -19 -101.5 -58.4 -135.7 -40.3 -35 -93.9 -49.7 -142.9 -39.1 -66.2 14.4 -118.8 66.4 -132.6 131.2 -4.9 22.8 -4.8 43.1 0.1 65.3 3.4 15.4 13.3 41.6 15 39.8 0.4 -0.4 3.9 -9 7.7 -19z m106.9 -1.3 c4.6 -2.8 6.8 -7.4 5.2 -11.1 -3.6 -8.8 -12.9 -9 -17.2 -0.3 -1.4 2.7 -1.4 3.3 0.1 6.3 1.3 2.8 6.3 7.1 8.2 7.1 0.3 0 1.9 -0.9 3.7 -2z m-146.1 -19.2 c-0.4 -1.8 -0.9 -5 -1.3 -7.1 -0.7 -4.4 1.4 -4.8 -20.3 3.4 l-15.5 5.7 5.5 0.4 c3 0.3 11.5 0.5 18.9 0.6 l13.4 0.2 -0.7 -3.2z m384.2 -5.9 c7.8 -0.7 14.2 -1.5 14.2 -1.8 0 -0.3 -7.1 -2.8 -15.7 -5.5 -8.7 -2.7 -16.3 -5.1 -17 -5.3 -1.2 -0.5 -1.7 1.6 -2.7 10.6 l-0.4 4.3 3.6 -0.5 c2 -0.3 10.1 -1.1 18 -1.8z m-299.8 -13.1 c7.5 -5.1 9.8 -12.4 6.1 -19.6 -2.1 -4.2 -7.9 -8.2 -11.8 -8.2 -3.3 0 -9 4.8 -11.3 9.4 -1.9 3.9 -2 5.1 -1 8 1.4 4.4 4.5 8.3 8.4 10.7 4 2.4 5.6 2.4 9.6 -0.3z m299.4 -24.5 c9.8 -2.6 17.4 -4.9 17 -5 -1.2 -0.4 -36.8 -5.1 -37.1 -4.9 -0.5 0.4 1.1 14.6 1.6 14.6 0.3 0 8.6 -2.1 18.5 -4.7z m-384 -4.9 c0.3 -2.6 0.6 -6 0.6 -7.5 0 -2.5 -0.3 -2.8 -2.7 -2.4 -1.6 0.2 -8.9 0.9 -16.3 1.5 -7.4 0.6 -14.2 1.4 -15 1.7 -1.3 0.5 28.3 11 31.6 11.2 0.6 0.1 1.4 -2 1.8 -4.5z m251.4 -12.7 c4.4 -2.6 8.2 -8.5 8.9 -13.6 1.1 -8.5 -5 -17.6 -13.6 -20.2 -3.4 -1 -4.4 -0.9 -8.7 1.2 -5 2.5 -9.7 8.5 -10.9 13.9 -1.5 6.7 4.5 16.8 11.9 20.1 4.5 2 7.3 1.7 12.4 -1.4z m125.2 -26.9 c8.2 -4.5 14.7 -8.4 14.5 -8.6 -0.3 -0.3 -22.9 2.1 -31.6 3.4 l-3.7 0.5 2.1 6.5 c1.2 3.5 2.5 6.4 3 6.4 0.4 0 7.5 -3.7 15.7 -8.2z m-365.1 -9 c3.9 -9.2 5.1 -8.1 -13 -11.7 -8.8 -1.8 -16.3 -3.1 -16.5 -2.8 -0.4 0.4 25.6 18.4 26.9 18.6 0.4 0 1.6 -1.8 2.6 -4.1z m352.6 -36.8 c6.5 -6.6 6.7 -7.1 3.5 -5.8 -1.9 0.8 -9 3.6 -15.7 6.3 -6.8 2.7 -12.3 5.2 -12.3 5.7 0 0.4 1.5 3 3.2 5.7 l3.3 4.9 5.5 -4.8 c3 -2.7 8.7 -8.1 12.5 -12z m-327.2 -8 l3.7 -4.9 -15.1 -7.6 -15.1 -7.7 6.3 7.4 c3.4 4 8.3 9.7 10.8 12.6 2.4 2.8 4.7 5.2 5 5.2 0.3 -0.1 2.3 -2.3 4.4 -5z m286.9 -14.8 c1.5 -2.6 5.2 -8.9 8.3 -14 5.4 -9.2 5.5 -9.3 2.3 -7.1 -9 6.3 -21.4 15.3 -22.3 16 -0.8 0.8 7 9.9 8.5 9.9 0.3 0 1.7 -2.2 3.2 -4.8z m-244.8 -23.8 l5.4 -3.5 -8.2 -7.8 c-4.4 -4.3 -10 -9.5 -12.4 -11.6 l-4.3 -3.8 2.6 5.9 c1.4 3.2 4.5 10.1 6.7 15.2 2.2 5 4.3 9.2 4.5 9.2 0.2 0 2.8 -1.6 5.7 -3.6z m201.6 -12.6 c1.2 -4 3.4 -11.5 5 -16.7 1.6 -5.3 2.3 -8.8 1.6 -8 -0.7 0.8 -5.7 6.8 -11 13.3 l-9.7 11.9 3.3 2 c1.8 1.1 4.2 2.6 5.3 3.3 1.1 0.7 2.3 1.3 2.7 1.3 0.4 0.1 1.7 -3.2 2.8 -7.1z m-151.5 -11.7 c3.6 -1.2 5.9 -2.4 5.7 -3.2 -0.4 -1.6 -15.1 -28.1 -16.4 -29.4 -0.6 -0.6 -0.7 0.5 -0.3 3 0.8 5.9 3.5 29.2 3.5 30.4 0 1.5 0.5 1.4 7.5 -0.8z m105.5 -18.8 c0 -10.2 -0.2 -18.4 -0.4 -18.2 -0.6 0.7 -13.4 30.3 -13.8 31.8 -0.2 1.2 6.8 3.8 13.5 5 0.4 0 0.7 -8.3 0.7 -18.6z m-48 4 c-0.9 -4.3 -2.8 -12.4 -4 -18.1 -1.3 -5.6 -2.5 -10 -2.7 -9.8 -0.6 0.5 -6.3 31.3 -6.3 33.7 0 1.7 0.8 1.9 7.4 1.9 l7.4 0 -1.8 -7.7z"/>
  <path d="M205.6 411.8 c0.3 -9 0.7 -16.9 1 -17.5 0.2 -0.8 2 -1.3 4.3 -1.3 5.8 0 6.2 1.4 5.9 19.2 l-0.3 15.3 -5.7 0.3 -5.7 0.3 0.5 -16.3z"/>
  <path d="M223.4 413.3 c0.4 -6.5 1 -13.7 1.3 -16 l0.6 -4.3 9.3 0 c5.8 0 9.4 -0.4 9.4 -1 0 -0.6 -2 -10.1 -4.5 -21.2 -2.5 -11.1 -4.5 -21.9 -4.5 -24 0 -3.6 0.2 -3.8 3 -3.8 1.7 0 4.2 0.7 5.5 1.6 2.4 1.6 2.7 1.5 8 -2.5 3.6 -2.7 6.4 -4.1 8.5 -4.1 l3 0 0 16 c0 10 0.4 16 1 16 0.6 0 1 9.1 1 25.3 l0 25.3 -17.7 2.2 c-9.8 1.2 -19.3 2.2 -21.2 2.2 l-3.4 0 0.7 -11.7z"/>
  <path d="M373.8 423.3 c-2.1 -0.3 -2.8 -1 -2.8 -2.6 0 -3.4 3.8 -61.4 4.5 -68.4 l0.7 -6.3 3.4 0 c1.9 0 3.6 0.6 3.9 1.3 0.2 0.6 0.9 8 1.5 16.2 0.6 8.3 1.7 23.8 2.5 34.5 0.8 10.7 1.5 21 1.5 22.8 l0 3.2 -6.2 -0.1 c-3.5 -0.1 -7.5 -0.4 -9 -0.6z"/>
  <path d="M270 418.3 c0 -1 0.7 -9.9 1.5 -19.8 0.8 -9.9 1.5 -18.6 1.5 -19.2 0 -0.8 1.4 -1.3 3.5 -1.3 3.1 0 3.5 0.3 3.9 3.3 0.8 4.8 2.6 28.1 2.6 33.8 l0 4.9 -6.5 0 c-5.5 0 -6.5 -0.3 -6.5 -1.7z"/>
  <path d="M235.8 339 c-3.8 -2.1 -4.2 -2.8 -6.7 -14 -0.6 -2.5 -1.1 -6 -1.1 -7.7 0 -3.1 0.2 -3.3 3.4 -3.3 3.7 0 3.4 -0.3 11.8 14.2 2.1 3.8 3.8 8.1 3.8 9.8 0 2.8 -0.2 3 -3.7 3 -2.1 -0.1 -5.5 -1 -7.5 -2z"/>
 </g>
 <g fill="#ef9e29">
  <path d="M336 420 c-6.3 -0.4 -19 -0.8 -28.2 -0.9 -14.2 -0.1 -16.8 -0.3 -16.8 -1.6 0 -0.8 0.6 -1.5 1.3 -1.5 1.4 0 2.7 -15.1 2.7 -32.1 0 -4.3 0.4 -8 0.9 -8.4 0.6 -0.3 0.7 -6.8 0.4 -15.8 -0.6 -14.8 -0.5 -15.2 1.3 -13.6 1 0.8 3.9 3.2 6.3 5.2 3.4 2.8 5.4 3.7 8.2 3.7 3.4 0 4.5 -0.8 13.1 -10.1 l9.4 -10 5.3 -14.2 c2.9 -7.8 5.7 -15.4 6.3 -16.9 0.6 -1.6 1.3 -2.8 1.7 -2.8 0.3 0 0.4 7.5 0.2 16.6 -0.2 13.5 0 16.8 1.2 18.2 1.2 1.4 1.6 6.7 2.1 26.7 1.1 45.4 1.7 55.5 3.2 55.5 0.8 0 1.4 0.7 1.4 1.5 0 1.6 -0.2 1.7 -20 0.5z"/>
  <path d="M291.3 400.5 c0 -2.2 0.2 -3 0.4 -1.7 0.2 1.2 0.2 3 0 4 -0.3 0.9 -0.5 -0.1 -0.4 -2.3z"/>
  <path d="M293.3 365 c0 -3 0.2 -4.3 0.4 -2.7 0.2 1.5 0.2 3.9 0 5.5 -0.2 1.5 -0.4 0.2 -0.4 -2.8z"/>
  <path d="M354.3 366.5 c0 -2.2 0.2 -3 0.4 -1.7 0.2 1.2 0.2 3 0 4 -0.3 0.9 -0.5 -0.1 -0.4 -2.3z"/>
  <path d="M412.8 358.8 c1.1 -1.8 3.1 -5.4 4.6 -8 1.5 -2.5 3.8 -5.3 5.1 -6.2 3.8 -2.5 4.3 -1.8 0.8 1 -1.8 1.4 -4.9 5.6 -6.9 9.5 -2 3.8 -4.1 6.9 -4.6 6.9 -0.5 0 -0.1 -1.5 1 -3.2z"/>
  <path d="M450 353.7 c-3 -6 -4.2 -7.4 -8 -9.4 -2.5 -1.2 -3.9 -2.3 -3.2 -2.3 4.5 -0.1 10.6 6.1 13.6 13.9 2.6 6.7 1.5 5.7 -2.4 -2.2z"/>
  <path d="M409 347.3 c0 -8.7 0.3 -12.3 1.2 -12.3 0.8 0 1 -5.4 0.5 -20.7 -0.4 -14.5 -0.3 -20.3 0.4 -19 0.6 1 3.1 6.4 5.6 12 4.3 9.6 4.4 10.3 3.3 14.4 -1.6 5.6 -0.6 10.6 3.2 14.8 1.6 1.9 2.4 3.5 1.7 3.5 -2.6 0 -8.1 5.4 -10.9 10.8 -5 9.7 -5 9.7 -5 -3.5z"/>
  <path d="M453 350.7 c-3 -6 -4.2 -7.5 -7.7 -9.2 -2.4 -1.1 -4.3 -2.2 -4.3 -2.5 0 -0.3 1.3 -1.4 2.7 -2.4 1.9 -1.4 2.8 -1.6 3.1 -0.8 0.5 1.6 5.5 4.2 8.1 4.2 3.5 0 7 -2.2 8 -5.1 1.1 -3.2 0.6 -3.9 -2.4 -3.9 -2.1 0 -2.3 -0.6 -2.7 -8.2 -0.5 -7.7 -0.7 -8.3 -3.8 -11.1 -2.7 -2.4 -3.9 -2.8 -7.4 -2.5 -2.2 0.3 -4.7 0.6 -5.4 0.9 -0.9 0.3 -4.5 -7.6 -11.6 -25.2 -5.7 -14.1 -11.7 -27.7 -13.4 -30.2 -4 -5.7 -11 -9.3 -22.6 -11.5 l-8.4 -1.6 5.1 -3.5 c7.1 -5 10.7 -12 10.7 -20.7 0 -13.6 -7.9 -23.3 -20.3 -25 -12.1 -1.7 -23.8 8.2 -25.4 21.5 -1.2 10.4 5.9 23.4 14.3 26.1 1.9 0.6 3.4 1.5 3.4 1.9 0 0.5 -2.6 1.1 -5.7 1.4 -16.3 1.7 -23.9 7.7 -29.5 23.4 -7.1 20.2 -21.7 63.5 -22 65.4 -0.2 1.2 -1.3 2.8 -2.4 3.6 -2 1.3 -2.6 1 -8.7 -5 -6.2 -6.1 -10.5 -8.6 -17.8 -10.1 l-2.7 -0.6 3.8 -3.8 c5.8 -5.7 6.5 -13.6 2 -20.9 -2.5 -4.2 -7.2 -6.5 -13.2 -6.5 -14.1 0 -20.7 17.9 -10.2 27.9 1.9 1.7 3.4 3.4 3.4 3.6 0 0.2 -1.8 0.7 -4.1 1 -2.2 0.3 -5.8 1.7 -8 3.1 -2.1 1.4 -4.1 2.6 -4.4 2.6 -0.3 0 -3.9 -6.7 -7.9 -15 l-7.4 -14.9 3.5 -2.2 c3.1 -2 7.3 -7.2 7.3 -9.1 0 -0.5 -0.9 -0.8 -1.9 -0.8 -3.3 0 -7.7 -4.6 -8.9 -9.2 -0.6 -2.4 -1.3 -7.9 -1.6 -12.3 -0.8 -11.1 -2 -14.6 -6.9 -20 -7.2 -7.9 -18.5 -9.1 -27.9 -3 -5.4 3.6 -8.7 11.1 -9.8 22.6 -0.6 5.2 -1.2 10.4 -1.5 11.6 -0.8 3.5 -6.4 9.3 -8.9 9.3 -1.3 0 -2.5 0.3 -2.9 0.6 -1 1 2 6 4.8 8.3 2.5 1.9 2.6 2.1 1 5.1 -0.9 1.7 -4.5 10.6 -8 19.8 -8.8 23.1 -9.7 25.2 -10.5 25.2 -0.9 0 -8.2 -15.8 -11.9 -25.6 -25.1 -68.5 -1.9 -146 57.4 -191.5 52.4 -40.2 123.2 -46.8 182.4 -16.9 39.2 19.7 71 56.2 85.5 97.9 13.9 40.1 11.8 85.1 -6 122.9 -4.6 9.9 -13.5 25.3 -15.6 27 -1 0.7 -2.2 -0.8 -4.8 -6.1z"/>
  <path d="M308.5 351 c-4.2 -2.7 -11.2 -9 -10 -9 0.6 0 3.7 2.3 7 5 3.3 2.8 6.3 5 6.6 5 0.4 0 5 -4.5 10.1 -10.1 l9.4 -10 5.3 -14.2 c7.6 -20.4 7.5 -20.1 7.8 -19.1 0.2 0.5 -2.6 8.5 -6.1 17.7 -5.9 15.4 -6.9 17.3 -12.6 23.7 -6.3 7.1 -12.5 13 -13.8 13 -0.4 0 -2 -0.9 -3.7 -2z"/>
  <path d="M511.2 337 c-15.5 -3.1 -28.5 -5.9 -28.8 -6.2 -0.4 -0.4 7 -20 8.2 -21.6 0.3 -0.5 49.4 32.7 49.4 33.4 0 0.2 -0.1 0.4 -0.2 0.3 -0.2 -0.1 -13 -2.7 -28.6 -5.9z"/>
  <path d="M353.2 338.5 c-0.1 -2.3 -0.5 -4.5 -0.9 -5.1 -0.5 -0.5 -0.2 -0.4 0.5 0.2 0.8 0.7 1.2 2.6 0.9 5 l-0.4 3.9 -0.1 -4z"/>
  <path d="M171.5 339.5 c2 -5.8 14.5 -38.6 15.5 -40.5 0.6 -1.2 1.4 -1.9 1.7 -1.7 0.2 0.3 -0.3 1.9 -1.2 3.7 -0.9 1.7 -4.6 10.9 -8.1 20.3 -3.6 9.5 -7 17.9 -7.6 18.7 -0.7 1.2 -0.8 1 -0.3 -0.5z"/>
  <path d="M302.2 334.1 c-6.3 -6.3 -9.8 -8.5 -15.9 -10.1 l-3.8 -1 4.4 0.5 c2.4 0.3 5.7 1.3 7.3 2.1 3.4 1.8 16.5 14.4 14.9 14.4 -0.6 0 -3.7 -2.7 -6.9 -5.9z"/>
  <path d="M315 338 c3.3 -2.6 5.2 -2.5 2.1 0 -1.3 1.1 -2.8 2 -3.5 2 -0.6 0 0 -0.9 1.4 -2z"/>
  <path d="M425.2 334.8 c-1.1 -1.3 -2.3 -3.6 -2.6 -5.3 -0.6 -2.9 -0.6 -2.9 0.4 -0.5 0.6 1.4 2.3 3.7 3.7 5.3 1.5 1.5 2.2 2.7 1.7 2.7 -0.6 0 -2 -1 -3.2 -2.2z"/>
  <path d="M438 336.3 c0 -0.5 1.3 -1.7 2.8 -2.7 l2.7 -1.9 -2.4 2.6 c-2.6 2.8 -3.1 3.2 -3.1 2z"/>
  <path d="M450.7 335.2 c-2.5 -2.7 -2.1 -3.6 0.4 -1.1 1.6 1.6 2.9 2 5.1 1.5 1.8 -0.3 2.7 -0.2 2.3 0.4 -1 1.7 -6.1 1.1 -7.8 -0.8z"/>
  <path d="M319.5 329.5 c0.7 -3.4 20.3 -60.9 22.9 -66.9 3.8 -9.1 11.2 -14.6 21.1 -16 3.9 -0.6 3.9 -0.5 -0.7 0.8 -7.4 2.2 -13.7 6.3 -16.7 11.1 -3.1 4.9 -3.9 6.9 -10.9 27.5 -9 26.3 -16.3 46.5 -15.7 43.5z"/>
  <path d="M242.5 315 c-4.1 -8.4 -7.5 -15.8 -7.4 -16.4 0 -0.6 3.6 6 8 14.8 4.4 8.7 7.8 16 7.5 16.3 -0.3 0.3 -3.9 -6.3 -8.1 -14.7z"/>
  <path d="M257 328 c2.9 -2.3 8.9 -4.5 9.7 -3.6 0.4 0.3 0 0.6 -0.8 0.6 -0.8 0 -3.1 1.1 -5.1 2.5 -4.3 2.9 -7.4 3.3 -3.8 0.5z"/>
  <path d="M422.1 324.5 c0 -1.1 0.4 -2.7 0.9 -3.5 0.9 -1.3 1 -1.3 0.9 0 0 0.8 -0.4 2.4 -0.9 3.5 l-0.9 2 0 -2z"/>
  <path d="M269.4 315.5 c-2.6 -1.8 -5.4 -7.4 -5.4 -10.9 0 -6.6 6.6 -13.6 12.9 -13.6 6.1 0 13.1 6.2 13.1 11.5 0 1.2 -0.8 0.4 -2 -2.2 -3.2 -7.2 -10.7 -10.3 -16 -6.6 -8.4 5.8 -9.1 14.9 -1.6 20.8 3.3 2.6 2.5 3.5 -1 1z"/>
  <path d="M284.1 314.3 c1.7 -1.5 3.8 -4.1 4.5 -5.8 0.7 -1.6 1.3 -2.4 1.4 -1.7 0 2.2 -2.9 7 -5.2 8.6 -3.7 2.6 -4.2 1.8 -0.7 -1.1z"/>
  <path d="M450.7 314.4 c-1.6 -1.4 -2.2 -2.4 -1.4 -2.4 1.5 0 5.3 3.7 4.6 4.4 -0.2 0.2 -1.7 -0.7 -3.2 -2z"/>
  <path d="M418.1 303.4 c-2.9 -6.3 -5.1 -11.7 -4.8 -12 0.2 -0.3 2.8 4.8 5.6 11.2 2.9 6.4 5 11.8 4.8 12 -0.2 0.2 -2.8 -4.8 -5.6 -11.2z"/>
  <path d="M442 313 c0.8 -0.5 2.2 -1 3 -1 1.3 0 1.3 0.1 0 1 -0.8 0.5 -2.2 1 -3 1 -1.3 0 -1.3 -0.1 0 -1z"/>
  <path d="M426.5 287.8 c-5.3 -13.4 -11 -26.4 -12.7 -29 -3.4 -5.4 -7.5 -8.2 -15.6 -11 -5 -1.6 -5.2 -1.8 -1.7 -1.3 7.6 1.1 14.4 5.2 17.9 10.9 3.4 5.3 23.1 53.4 22.3 54.2 -0.2 0.3 -4.8 -10.4 -10.2 -23.8z"/>
  <path d="M407.3 304.5 c0 -3.3 0.2 -4.5 0.4 -2.7 0.2 1.8 0.2 4.5 0 6 -0.2 1.5 -0.4 0 -0.4 -3.3z"/>
  <path d="M351.3 303 c0 -3 0.2 -4.3 0.4 -2.7 0.2 1.5 0.2 3.9 0 5.5 -0.2 1.5 -0.4 0.2 -0.4 -2.8z"/>
  <path d="M115 299.9 c-12.4 -0.4 -25.6 -0.9 -29.5 -1.1 l-7 -0.3 8 -2.9 c4.4 -1.5 17 -6.1 27.9 -10.2 11 -4.1 20.1 -7.2 20.4 -6.9 0.6 0.6 4.1 17.5 4.2 20.3 0 1.2 -0.3 2.1 -0.7 2 -0.5 0 -10.9 -0.5 -23.3 -0.9z"/>
  <path d="M494.4 285.8 c0.4 -4.6 1 -9.8 1.3 -11.6 0.5 -3.1 0.8 -3.4 3.5 -2.8 4 0.8 52.8 16 52.4 16.3 -0.1 0.1 -11.9 1.4 -26.2 2.8 -14.2 1.3 -27.2 2.7 -28.8 3 l-2.9 0.5 0.7 -8.2z"/>
  <path d="M495.5 248.9 c-0.4 -6.1 -0.4 -11.3 -0.1 -11.7 0.3 -0.3 12 0.9 25.9 2.7 27.2 3.4 32 4.2 31.5 4.7 -0.3 0.3 -55.5 15.4 -56.3 15.4 -0.1 0 -0.6 -5 -1 -11.1z"/>
  <path d="M113.5 248 c-11.6 -3.8 -23.6 -7.6 -26.9 -8.5 -3.2 -0.9 -5.6 -1.8 -5.4 -2 0.3 -0.4 32.6 -3.7 49.7 -5.1 l8.4 -0.7 -0.6 4.4 c-0.4 2.4 -0.9 7.7 -1.3 11.7 -0.4 4.3 -1.1 7.2 -1.8 7.1 -0.6 0 -10.5 -3.2 -22.1 -6.9z"/>
  <path d="M369.8 245.3 c1.2 -0.2 3.2 -0.2 4.5 0 1.2 0.2 0.2 0.4 -2.3 0.4 -2.5 0 -3.5 -0.2 -2.2 -0.4z"/>
  <path d="M370.4 237.1 c-4.9 -2.2 -9.7 -7.8 -11.3 -13 -1.8 -6.1 -1.2 -7.1 0.8 -1.3 2.2 6.2 7 11.7 12.6 14.2 2.2 1 3.6 1.9 3 1.9 -0.5 0 -2.8 -0.8 -5.1 -1.8z"/>
  <path d="M384.6 237.2 c0.5 -0.4 2.5 -2 4.5 -3.5 2.1 -1.5 4.9 -5 6.3 -7.9 1.4 -2.8 2.6 -4.6 2.6 -3.8 0 3.2 -4.6 10.4 -8.3 13.1 -3.5 2.6 -7.7 4.3 -5.1 2.1z"/>
  <path d="M489 209.5 c-1.8 -5.8 -3.1 -10.8 -2.8 -11 0.2 -0.2 12.1 -1.8 26.3 -3.5 14.3 -1.7 27.6 -3.3 29.5 -3.6 l3.5 -0.6 -3.5 2.2 c-4.8 3.1 -48.3 27 -49 27 -0.4 0 -2.1 -4.7 -4 -10.5z"/>
  <path d="M358.1 213.4 c-0.1 -1.1 1.1 -4.4 2.5 -7.3 2.9 -5.7 8.1 -9.8 13.7 -10.7 3 -0.5 3 -0.4 -0.7 1 -6.4 2.4 -12.4 9.2 -14.7 16.6 -0.6 2.1 -0.7 2.2 -0.8 0.4z"/>
  <path d="M397 211.9 c0 -2.4 -5.6 -10.6 -8.4 -12.5 -1.5 -0.9 -4.3 -2.2 -6.4 -3 -2.1 -0.8 -2.9 -1.3 -1.7 -1.3 3.3 -0.1 9.9 3.4 12.7 6.7 2.8 3.3 5.4 9.9 4.4 10.9 -0.3 0.4 -0.6 0 -0.6 -0.8z"/>
  <path d="M120.7 190.9 c-13.1 -8.7 -23.2 -15.9 -22.4 -15.9 0.8 0 12.9 2.2 26.8 5 14 2.7 26.2 5 27.2 5 0.9 0 1.7 0.6 1.6 1.3 0 2.1 -7.6 20.1 -8.5 20.4 -0.5 0.1 -11.6 -7 -24.7 -15.8z"/>
  <path d="M473.8 174.1 c-3.2 -4.9 -5.8 -9.3 -5.8 -9.8 0 -0.8 54 -22.6 54.5 -22.1 0.4 0.4 -41.1 40.2 -42.1 40.5 -0.5 0.2 -3.5 -3.7 -6.6 -8.6z"/>
  <path d="M148.4 142.7 c-10 -11.7 -17.8 -21.3 -17.4 -21.5 0.8 -0.3 45.4 21.8 48.3 24 1.6 1.2 1.2 2 -5.3 10.1 -3.9 4.8 -7.2 8.7 -7.3 8.6 -0.1 0 -8.4 -9.6 -18.3 -21.2z"/>
  <path d="M447.2 140.7 l-8.3 -8.4 22.6 -16.1 c12.4 -8.9 22.8 -16.2 23 -16.2 0.2 0 -1.7 3.7 -4.4 8.3 -6.6 11.4 -24.2 40.7 -24.4 40.7 -0.2 0 -4 -3.8 -8.5 -8.3z"/>
  <path d="M204.6 120.2 c-2 -3.9 -21.6 -48.1 -21.6 -48.8 0 -0.6 15.4 13.4 32.4 29.3 5.7 5.4 9.6 9.7 9 10.1 -1.7 1.6 -17.3 12.2 -17.8 12.2 -0.3 0 -1.2 -1.2 -2 -2.8z"/>
  <path d="M404.8 108.6 c-4.8 -2.9 -9 -5.5 -9.4 -5.9 -0.3 -0.3 6.3 -9.1 14.8 -19.4 8.4 -10.3 16.5 -20.3 17.8 -22.1 1.4 -1.8 2.6 -2.9 2.8 -2.3 0.2 0.6 -2.6 11.1 -6.3 23.3 -8.7 29.1 -9.5 31.8 -10.3 31.7 -0.4 0 -4.6 -2.4 -9.4 -5.3z"/>
  <path d="M253 93.8 c0 -1.4 -4.6 -42.6 -5.6 -50 -0.4 -2.7 -0.4 -4.8 -0.2 -4.8 0.7 0 27.7 47.5 28.1 49.3 0.2 1.1 -16.3 6.5 -20 6.6 -1.3 0.1 -2.3 -0.5 -2.3 -1.1z"/>
  <path d="M359.5 90.4 c-5.4 -1.4 -10.1 -2.7 -10.3 -2.9 -0.5 -0.5 22.1 -52.5 22.8 -52.5 1 0 -0.5 57.3 -1.5 57.6 -0.5 0.1 -5.5 -0.9 -11 -2.2z"/>
  <path d="M303.3 83.7 c0.3 -0.8 2.7 -13.3 5.3 -28 2.7 -14.6 5.2 -26.3 5.5 -25.9 1 1.1 12.8 53.5 12.3 54.4 -0.3 0.4 -5.7 0.8 -12.1 0.8 -9.2 0 -11.4 -0.3 -11 -1.3z"/>
 </g>
 <g fill="#1f64a7">
  <path d="M389.8 425.7 c-5.6 -0.8 -6.8 -1.3 -6.8 -2.8 0 -1.1 0.7 -1.9 1.6 -1.9 1.3 0 1.5 -1 1 -6.2 -0.4 -3.5 -1.1 -12.6 -1.6 -20.3 -4.1 -58.2 -4.4 -58.7 -7.5 -10.5 -0.8 12.9 -1.7 26.3 -2 29.8 -0.5 5.3 -0.3 6.2 1.1 6.2 0.8 0 1.4 0.6 1.1 1.3 -0.3 0.8 -2.6 1.1 -7.8 1 -11.4 -0.4 -15.9 -1.2 -15.9 -2.9 0 -0.8 0.7 -1.4 1.6 -1.4 1.4 0 1.5 -2 0.9 -18.7 -2 -55.7 -2.4 -64.6 -3.4 -65.6 -0.7 -0.7 -1.1 -9.4 -1.1 -25.2 l-0.1 -24 -6.8 17.5 c-3.7 9.6 -8 20.7 -9.4 24.5 -2.2 5.6 -4.3 8.7 -10.8 15.8 -4.5 4.8 -9 9.2 -10 9.8 -2.5 1.3 -4.7 0.1 -13 -7.2 -3.7 -3.3 -7 -5.9 -7.4 -5.9 -0.5 0 -0.5 7.6 -0.1 16.9 0.4 9.6 0.3 17.1 -0.2 17.3 -0.5 0.1 -1.2 9.9 -1.5 21.6 -0.5 18.1 -0.4 21.2 0.9 21.2 0.7 0 1.4 0.7 1.4 1.5 0 1.2 -1.6 1.5 -8.5 1.5 -5 0 -8.5 -0.4 -8.5 -1 0 -0.5 0.7 -1 1.5 -1 1.8 0 1.8 -0.3 0.5 -16.7 -1.1 -13.8 -1.9 -19.7 -2.5 -19.1 -0.2 0.2 -0.9 6.7 -1.5 14.3 -0.5 7.7 -1.2 15.7 -1.5 17.8 -0.4 2.9 -0.2 3.7 1 3.7 0.8 0 1.5 0.6 1.5 1.4 0 0.9 -2.2 1.5 -7.5 2 -4.2 0.4 -8 0.4 -8.5 0.1 -1.5 -0.9 -1.2 -2.5 0.5 -2.5 1.3 0 1.5 -3.2 1.5 -22.5 0 -14.3 -0.4 -22.5 -1 -22.5 -0.6 0 -1 -6 -1 -16.1 l0 -16 -5.9 4.5 c-6.7 5.2 -8.2 5.5 -13 2.5 l-3.4 -2 0.5 2.5 c1.1 5.6 -3.2 1.3 -5 -5 -1.5 -5.1 -1.6 -12.4 -0.2 -12.4 0.6 0 1.3 0.7 1.7 1.5 0.5 1.4 7.2 5.5 8.9 5.5 0.3 0 -0.2 -1.2 -1.1 -2.7 -1.7 -2.5 -1.7 -2.6 0 -1.9 1.3 0.5 2.8 -0.3 5.1 -2.5 3 -2.9 3.2 -3 3.9 -1 0.6 1.9 0.8 1.9 5 -1.4 5.8 -4.4 12.7 -5.9 24.6 -5.3 11.3 0.5 13.8 1.6 22.6 10.4 3.6 3.5 6.9 6.4 7.4 6.4 0.6 0 2.7 -1.1 4.7 -2.5 3.1 -2.1 3.7 -3.1 3.8 -6.3 0.1 -3.2 18.1 -57.4 22.8 -68.6 5.3 -12.6 15.9 -17.6 37.6 -17.6 18.5 0 29.4 4 34.7 12.7 2.5 4.1 22.3 51.7 22.3 53.6 0 0.4 -1.6 0.7 -3.5 0.7 -2 0 -5 0.7 -6.6 1.6 -1.7 0.8 -3.2 1.4 -3.4 1.2 -0.2 -0.2 -3.6 -7.3 -7.5 -15.8 -3.9 -8.5 -7.5 -15.9 -8 -16.4 -0.7 -0.7 -0.8 7.4 -0.4 23.7 0.5 17.2 0.4 25.4 -0.4 27 -1 2.1 -2.3 36.7 -1.4 36.7 0.3 0 1.1 -0.8 1.8 -1.7 1.2 -1.6 1.3 -1.4 1.4 1.7 0 2 -0.7 4.5 -1.5 5.7 -1.2 1.6 -1.2 2.3 -0.2 2.7 0.9 0.3 0.8 0.8 -0.4 1.8 -1.3 1.1 -1.7 4.9 -2.3 23.1 -0.7 19.4 -0.6 21.7 0.8 21.7 0.9 0 1.6 0.5 1.6 1 0 1.2 -8 1.1 -17.2 -0.3z"/>
  <path d="M251.6 351.3 c-0.7 -0.7 3.8 -4.3 5.3 -4.3 0.6 0 1.1 0.3 1.1 0.8 0 1 -5.7 4.1 -6.4 3.5z"/>
  <path d="M270.4 316.1 c-3.4 -2.1 -6.4 -7.5 -6.4 -11.5 0 -6.6 6.6 -13.6 12.9 -13.6 7 0 13.1 6.3 13.1 13.5 0 10.4 -11 16.9 -19.6 11.6z"/>
  <path d="M426.7 316.5 c1.2 -0.8 3.7 -1.8 5.5 -2.1 3.1 -0.5 3.1 -0.4 -1.1 1.5 -5.1 2.5 -7.5 2.8 -4.4 0.6z"/>
  <path d="M370.4 237.2 c-11.1 -5.2 -15.6 -19.5 -9.8 -31.1 7.7 -15.4 29.2 -14.6 36 1.4 4.1 9.6 0.8 22.1 -7.2 27.8 -5.4 3.8 -13.3 4.6 -19 1.9z"/>
 </g>
 <g fill="#cf3e35">
  <path d="M433.6 434.5 c-0.8 -0.8 -3 -1.5 -4.9 -1.5 -4.8 0 -6.7 -0.9 -6.7 -3.1 0 -1.3 0.5 -1.7 1.6 -1.2 1.5 0.5 1.6 -0.4 0.9 -9.8 -0.4 -5.7 -0.9 -10.7 -1.2 -11.1 -0.2 -0.5 -3.1 -0.8 -6.5 -0.8 -5.3 0 -5.9 -0.2 -5.3 -1.7 0.9 -2.3 9.5 -43.7 9.1 -44 -0.1 -0.2 -3.3 4.2 -7 9.7 -4.6 6.8 -7.4 10 -8.7 10 -2.8 0 -2.5 -5.2 0.6 -9.9 1.4 -2.1 5.4 -8.7 8.8 -14.6 7.3 -12.8 9.6 -14.5 19.5 -14.5 7.3 0 11.1 1.6 14.5 6.2 3.3 4.5 14.1 31.3 13.4 33.3 -0.4 0.8 -1.6 1.5 -2.7 1.5 -1.7 0 -3 -2 -6.7 -10 -2.5 -5.5 -4.8 -9.8 -5 -9.6 -0.3 0.2 1.6 9.7 4.1 21 2.5 11.3 4.6 21 4.6 21.6 0 0.6 -2.6 1 -6 1 -5 0 -6 0.3 -6 1.8 0 0.9 -0.5 6.6 -1 12.7 -0.9 9.5 -0.9 11.1 0.5 12.1 2.5 1.9 1.7 2.4 -3.4 2.4 -3.1 0 -5.5 -0.6 -6.5 -1.5z m1.8 -15.2 c-0.4 -6.5 -0.8 -12 -1 -12.2 -0.9 -1 -1.2 1.1 -1.9 12.2 -0.7 11.5 -0.7 11.7 1.4 11.7 2.1 0 2.1 -0.2 1.5 -11.7z"/>
  <path d="M194 429.1 c0 -0.6 0.7 -1.1 1.5 -1.1 1.8 0 1.9 -3.7 0.2 -20 l-1.2 -11.5 -9.8 0 c-7 0 -9.7 -0.3 -9.7 -1.2 0 -0.7 3.4 -17 7.5 -36.3 4.1 -19.3 7.5 -35.6 7.5 -36.3 0 -0.6 -2.9 5.5 -6.5 13.7 -3.6 8.2 -7.2 16 -8 17.2 -1.9 3 -4.6 3.1 -7.1 0.3 -1.7 -1.9 -1.7 -2.3 -0.2 -6.2 14.5 -38.4 18.8 -48.8 21.1 -51.8 1.5 -2 5.1 -4.9 7.9 -6.5 4.7 -2.5 6.3 -2.9 13.8 -2.9 17 0 20.3 2.8 32.5 27.5 l9 18.1 -3.3 3 c-1.8 1.6 -3.6 2.9 -4.1 2.9 -0.5 0 -1.8 -1.5 -2.8 -3.2 -8.5 -14.4 -10.6 -17.8 -10.9 -17.5 -0.2 0.1 0.4 3.2 1.2 6.7 0.8 3.6 1.9 8.3 2.4 10.5 1.7 8.4 13.1 58.1 13.6 59.8 0.5 1.5 -0.4 1.7 -9.9 1.7 l-10.5 0 -0.6 5.3 c-1.8 17 -1.9 20.7 -0.2 20.7 1.6 0 2.2 2.5 0.8 3.4 -0.5 0.3 -4.4 0.8 -8.8 1.2 -4.3 0.4 -8.2 1.1 -8.5 1.6 -1 1.5 -16.9 2.3 -16.9 0.9z m19.8 -17.1 c0.2 -9.8 -0.1 -13 -1.2 -14.5 -2.6 -3.5 -3.4 -0.5 -3.8 13.8 l-0.3 13.8 2.5 -0.3 2.5 -0.3 0.3 -12.5z"/>
  <path d="M251.7 351.4 c-0.7 -0.8 3.6 -4.4 5.2 -4.4 1.4 0 1.4 0.6 0.1 3.1 -1 1.8 -4 2.6 -5.3 1.3z"/>
  <path d="M426 335.3 c-9.1 -8.1 -1.2 -23.8 10.1 -20.4 5.5 1.7 7.9 5.2 7.9 11.6 0 4.8 -0.3 5.6 -3.5 8.4 -4.8 4.1 -10.1 4.3 -14.5 0.4z"/>
  <path d="M450 334.3 c-1.8 -2.3 -2.1 -3.6 -1.6 -7.6 0.6 -5.9 -0.7 -9.2 -4.5 -10.8 -4.8 -1.9 -3 -3.9 3.5 -3.9 5.3 0 7.1 2.8 7.2 11.8 0.2 6.5 0.5 7.9 2.4 9.4 2.7 2.2 1.8 3.8 -2 3.8 -1.9 0 -3.6 -0.9 -5 -2.7z"/>
  <path d="M206.5 278.1 c-4 -2.4 -6.1 -4.9 -8 -9.4 -4.8 -11.5 3.1 -24.7 14.8 -24.7 9.1 0 15.1 5.1 17.2 14.7 1.5 7 -3.4 16.7 -10.2 20.2 -3.3 1.7 -10.4 1.3 -13.8 -0.8z"/>
 </g>
 <g fill="#90b83e">
  <path d="M73.2 475.6 c25.2 -15.2 57.6 -29.2 90.8 -39.1 32.5 -9.7 56.7 -14.3 100.7 -19.2 3.7 -0.5 22.6 -0.8 41.8 -0.8 48.6 0.1 74.4 2.7 113.1 11.4 37.3 8.5 65.3 17.9 94 31.6 13.6 6.5 33 17 33.8 18.4 0.3 0.4 -9.3 -2.5 -21.2 -6.5 -98.3 -33 -212.1 -42.5 -321.2 -26.8 -43.2 6.2 -95 18.9 -126.4 31 -11.1 4.3 -12.6 4.3 -5.4 0z"/>
 </g>
</svg>