<svg xmlns="http://www.w3.org/2000/svg" viewBox="0 0 47.5 47.5" id="sunrise">
  <defs>
    <clipPath id="a">
      <path d="M5 37a4 4 0 0 1-4-4V5a4 4 0 0 1 4-4h28a4 4 0 0 1 4 4v28a4 4 0 0 1-4 4H5z"></path>
    </clipPath>
  </defs>
  <g clip-path="url(#a)" transform="matrix(1.25 0 0 -1.25 0 47.5)">
    <path fill="#ffcc4d" d="M38 0H0v38h38V0Z"></path>
    <path fill="#f4900c" d="M33.114 18.264c1.587.451 1.587 1.147.001 1.599l-.559.153-.556.164v-.005l-2.941.891L31.383 23h-.014l.493.322.497.359c1.291 1.023 1.008 1.687-.629 1.498l-.636-.09-.632-.089h-.002l-2.979-.339 1.77 3.18.309.558c.802 1.44.282 1.963-1.158 1.162l-.559-.28-.555-.281h-.002l-2.626-1.489.34 2.947v.003l.08.633.077.637c.188 1.634-.492 1.915-1.516.623l-.394-.499-2.257-2.85-.819 2.881-.002.004-.348 1.225c-.452 1.587-1.19 1.587-1.642 0l-.174-.613-.174-.612-.821-2.885-1.861 2.35-.002.001-.395.499-.397.502c-1.023 1.289-1.704 1.007-1.515-.629l.074-.634.073-.633v-.001l.346-2.979-3.177 1.77-.556.31c-1.442.803-1.964.281-1.161-1.161l.31-.556 1.77-3.177-2.979.346h-.001l-.633.073-.634.074c-1.636.189-1.918-.492-.629-1.515l.502-.397.499-.395.001-.002 2.35-1.861-2.885-.821-.612-.174-.613-.174c-1.587-.452-1.587-1.19 0-1.641l1.225-.349.004-.002 2.881-.819-2.85-2.258-.499-.395c-1.292-1.024-1.011-1.705.623-1.517l.637.08.633.08h.003l2.947.34L9 10.714v-.002l-.281-.555-.296-.559c-.8-1.439-.27-1.96 1.17-1.158l.559.309 3.185 1.77L13 7.54v-.002l-.08-.631-.077-.635c-.189-1.637.491-1.918 1.515-.627l.395.5.395.5 1.862 2.351.82-2.884.001-.001.174-.613.174-.613c.452-1.586 1.106-1.586 1.557.001L20 6.111v.004l.905 2.881 1.905-2.351.416-.5.408-.5c1.022-1.29 1.709-1.01 1.521.625l-.078.637-.077.632v.003l-.34 2.948L27.284 9h.002l.557-.28.557-.295c1.441-.803 1.963-.272 1.16 1.167l-.28.561-.28.557v.002l-1.49 2.628 2.948-.34h.003l.632-.08.637-.077c1.635-.188 1.915.492.625 1.515l-.5.395-.5.395-2.351 1.947 2.881.905h.004l1.225.264Z"></path>
    <path fill="#ffe8b6" d="M28.63 18.999c0-5.318-4.312-9.629-9.63-9.629a9.629 9.629 0 0 0-9.629 9.629A9.629 9.629 0 0 0 19 28.628c5.318 0 9.63-4.311 9.63-9.629"></path>
    <path fill="#5c913b" d="M39 7s-9 13-13 13S13 7 13 7V1h26v6z"></path>
    <path fill="#3e721d" d="M-3 1s9 13 13 13S23 1 23 1"></path>
  </g>
</svg>
